<?xml version="1.0" encoding="UTF-8" standalone="no"?>
<!-- Created with Inkscape (http://www.inkscape.org/) -->
<svg
   xmlns:svg="http://www.w3.org/2000/svg"
   xmlns="http://www.w3.org/2000/svg"
   version="1.0"
   width="43"
   height="36"
   viewBox="0 0 380 315"
   id="svg2">
  <defs
     id="defs4" />
  <path
     d="M 191.19419,7.2674421 L 249.37634,7.2833781 C 248.68368,10.400878 249.99564,19.125561 249.30297,22.242839 L 228.70169,22.413489 L 228.37699,135.11979 L 263.56833,135.17568 L 263.50491,161.8401 L 228.52528,161.8235 C 228.2277,188.27034 228.02673,224.16575 228.74429,250.6645 C 253.9188,237.40068 289.62164,225.29732 290.23429,191.1633 C 287.17921,148.0795 242.26951,115.55104 253.86058,69.753337 C 267.88225,36.207512 320.53435,20.660628 343.88439,53.224501 C 357.74659,72.556763 344.13583,95.736265 329.74011,105.61034 C 322.80093,110.36992 299.25612,112.66195 293.62083,107.50939 C 283.24521,98.022542 279.71215,77.250166 271.89571,62.584858 C 262.77584,122.90311 339.99289,125.76608 357.77392,173.0113 C 372.78717,209.96558 341.322,248.17636 306.53028,257.8695 C 278.08136,264.64942 249.1871,269.69729 221.01296,277.78276 C 229.91316,278.83565 250.79477,277.02856 259.69497,278.08123 L 260.44551,307.48478 L 191.19419,307.73256 L 121.94287,307.48478 L 122.69341,278.08123 C 131.59362,277.02856 152.47522,278.83565 161.37542,277.78276 C 133.20128,269.69729 104.30703,264.64942 75.858099,257.8695 C 41.066379,248.17636 9.6012095,209.96558 24.614459,173.0113 C 42.395489,125.76608 119.61254,122.90311 110.49267,62.584858 C 102.67623,77.250166 99.143179,98.022542 88.767559,107.50939 C 83.132259,112.66195 59.587449,110.36992 52.648269,105.61034 C 38.252549,95.736265 24.641789,72.556763 38.503989,53.224501 C 61.854029,20.660628 114.50613,36.207512 128.5278,69.753337 C 140.11888,115.55104 95.209169,148.0795 92.154089,191.1633 C 92.766739,225.29732 128.46959,237.40068 153.64409,250.6645 C 154.36166,224.16575 154.16068,188.27034 153.8631,161.8235 L 118.88347,161.8401 L 118.82006,135.17568 L 154.01139,135.11979 L 153.6867,22.413489 L 133.08541,22.242839 C 132.39274,19.125561 133.70471,10.400878 133.01204,7.2833781 L 191.19419,7.2674421 z "
     style="fill:#000000;fill-opacity:1;fill-rule:nonzero;stroke:none"
     id="path3879" />
</svg>
